<?xml version="1.0" encoding="UTF-8"?>
<svg width="118px" height="17px" viewBox="0 0 118 17" version="1.1" xmlns="http://www.w3.org/2000/svg" xmlns:xlink="http://www.w3.org/1999/xlink">
    <!-- Generator: sketchtool 40.3 (33839) - http://www.bohemiancoding.com/sketch -->
    <title>2BF2A51F-5330-4978-A442-F9BAA3EFC1F3</title>
    <desc>Created with sketchtool.</desc>
    <defs></defs>
    <g id="Symbols" stroke="none" stroke-width="1" fill="none" fill-rule="evenodd">
        <g id="logo" transform="translate(0.000000, -5.000000)" fill="#4994B2">
            <g id="Group-4">
                <g id="dataart-logo" transform="translate(0.000000, 5.000000)">
                    <g id="Page-1">
                        <path d="M24.4036007,10.0150034 L26.0665726,5.49034582 L27.6278989,10.0150034 L24.4036007,10.0150034 Z M22.9820112,1.59451608 L17.3496849,14.4401034 L22.7443551,14.4401034 L23.2115937,13.1783591 L28.7460007,13.1783591 L29.1813586,14.4401034 L34.6356498,14.4401034 L29.3767832,1.59451608 L22.9820112,1.59451608 Z" id="Fill-1"></path>
                        <polygon id="Fill-2" points="48.7590905 1.59441386 34.3003642 1.59441386 34.3003642 4.85446513 38.9982133 4.85446513 38.9982133 14.4402056 44.0392975 14.4402056 44.0392975 4.85446513 48.7590905 4.85446513"></polygon>
                        <g id="Group-13" transform="translate(0.000000, 0.088743)">
                            <path d="M10.3500698,10.2032429 C9.79112246,10.6891739 8.85064175,10.9398056 7.54498211,10.9398056 L5.03924175,10.9398056 L5.03924175,4.67503658 L7.54498211,4.67503658 C8.83656456,4.67503658 9.77104175,4.92341949 10.3419961,5.41037266 C10.9170909,5.89834797 11.2004979,6.69787519 11.2004979,7.80179924 C11.2004979,8.91676253 10.9170909,9.71424544 10.3500698,10.2032429 M14.4989084,3.13710684 C13.0872558,2.03420494 11.0288804,1.49082899 8.33351193,1.49082899 L2.07017542e-05,1.49082899 L2.07017542e-05,14.3515442 L8.33351193,14.3515442 C11.048754,14.3515442 13.101333,13.8042841 14.5088453,12.7140568 C15.9163575,11.6217853 16.6231154,10.0268195 16.6231154,7.93202139 C16.6231154,5.83231696 15.9163575,4.23326253 14.4989084,3.13710684" id="Fill-3"></path>
                            <path d="M55.1320635,9.92626019 L56.7950354,5.40160259 L58.3623653,9.92626019 L55.1320635,9.92626019 Z M53.7144074,1.50577285 L48.0802179,14.3513602 L53.4788214,14.3513602 L53.94606,13.0896159 L59.480467,13.0896159 L59.9075442,14.3513602 L65.3703232,14.3513602 L60.1112495,1.50577285 L53.7144074,1.50577285 Z" id="Fill-5"></path>
                            <path d="M95.6615028,5.01013886 C95.3619484,4.84843443 94.7707063,4.76564013 93.8844642,4.76564013 L91.0773063,4.76564013 L91.0773063,7.05771354 L94.012194,7.05771354 C94.7748467,7.05771354 95.3238572,6.96694646 95.6333484,6.78847873 C95.9488432,6.60510468 96.1045204,6.30459203 96.1045204,5.88448759 C96.1045204,5.46847177 95.9608502,5.1759319 95.6615028,5.01013886" id="Fill-7"></path>
                            <polygon id="Fill-9" points="74.9852323 9.92626019 78.2118077 9.92626019 76.6463411 5.40160259"></polygon>
                            <path d="M116.712806,4.76568101 L111.992806,4.76568101 L111.992806,14.3514215 L106.953585,14.3514215 L106.953585,4.76568101 L102.253873,4.76568101 L102.253873,1.50562975 L116.712806,1.50562975 L116.712806,4.76568101 Z M101.846462,14.3514215 L96.2443607,14.3514215 C96.0764695,14.0774848 95.9808274,13.5518943 95.9609537,12.7713791 C95.95288,12.3110019 95.9330063,11.9608127 95.9011256,11.7105899 C95.8489572,11.2401956 95.69328,10.9110627 95.421673,10.7217601 C95.1583467,10.5295956 94.7070484,10.4367842 94.0841326,10.4367842 L91.0774098,10.4367842 L91.0774098,14.3514215 L85.9663537,14.3514215 L85.9663537,1.50562975 L95.8651046,1.50562975 C96.9991467,1.50562975 97.9052625,1.56000823 98.584487,1.66733418 C99.2672309,1.77384241 99.7901572,1.94147532 100.177694,2.16716646 C100.664599,2.4480538 101.032055,2.82952089 101.287515,3.31075 C101.543182,3.7905481 101.671119,4.33576392 101.671119,4.96581835 C101.671119,5.72282405 101.479213,6.39110696 101.099957,6.96208101 C100.720494,7.54164114 100.193427,7.95765696 99.5264168,8.21401266 C100.095508,8.44665443 100.504989,8.74348734 100.736641,9.09224557 C100.964154,9.43732405 101.099957,10.0632899 101.139912,10.945407 C101.147571,11.0472133 101.155852,11.180093 101.159785,11.3516101 C101.24342,13.0352987 101.471347,13.9660703 101.846462,14.1474 L101.846462,14.3514215 Z M79.7568625,14.3514215 L79.3297853,13.0896772 L73.7955853,13.0896772 L73.3302098,14.3514215 L67.9336765,14.3514215 L73.567866,1.50562975 L79.9587046,1.50562975 L85.2237818,14.3514215 L79.7568625,14.3514215 Z M66.6716975,15.9455696 L117.92655,15.9455696 L117.92655,0.115707595 L66.6716975,0.115707595 L66.6716975,15.9455696 Z" id="Fill-11"></path>
                        </g>
                    </g>
                </g>
            </g>
        </g>
    </g>
</svg>