<?xml version="1.0" encoding="UTF-8" standalone="no"?>
<!-- Generator: Adobe Illustrator 16.0.0, SVG Export Plug-In . SVG Version: 6.00 Build 0)  -->

<svg
   xmlns:dc="http://purl.org/dc/elements/1.1/"
   xmlns:cc="http://creativecommons.org/ns#"
   xmlns:rdf="http://www.w3.org/1999/02/22-rdf-syntax-ns#"
   xmlns:svg="http://www.w3.org/2000/svg"
   xmlns="http://www.w3.org/2000/svg"
   xmlns:sodipodi="http://sodipodi.sourceforge.net/DTD/sodipodi-0.dtd"
   xmlns:inkscape="http://www.inkscape.org/namespaces/inkscape"
   version="1.1"
   id="svg6517"
   sodipodi:docname="camera-app-icon.svg"
   inkscape:version="0.91 r13725"
   x="0px"
   y="0px"
   width="96px"
   height="96px"
   viewBox="0 0 96 96"
   enable-background="new 0 0 96 96"
   xml:space="preserve"><metadata
     id="metadata3546"><rdf:RDF><cc:Work
         rdf:about=""><dc:format>image/svg+xml</dc:format><dc:type
           rdf:resource="http://purl.org/dc/dcmitype/StillImage" /><dc:title></dc:title></cc:Work></rdf:RDF></metadata><defs
     id="defs3544" /><filter
     inkscape:label="Badge Shadow"
     id="filter891"
     inkscape:collect="always"><feGaussianBlur
       stdDeviation="0.71999962"
       id="feGaussianBlur893"
       inkscape:collect="always" /></filter><filter
     inkscape:label="Inner Shadow"
     style="color-interpolation-filters:sRGB;"
     id="filter1121"><feFlood
       flood-color="rgb(0,0,0)"
       flood-opacity="0.59999999999999998"
       result="flood"
       id="feFlood1123" /><feComposite
       operator="out"
       in2="SourceGraphic"
       in="flood"
       result="composite1"
       id="feComposite1125" /><feGaussianBlur
       in="composite1"
       stdDeviation="1"
       result="blur"
       id="feGaussianBlur1127" /><feOffset
       dx="0"
       dy="2"
       result="offset"
       id="feOffset1129" /><feComposite
       operator="atop"
       in2="SourceGraphic"
       in="offset"
       result="composite2"
       id="feComposite1131" /></filter><sodipodi:namedview
     showguides="true"
     showborder="true"
     fit-margin-left="0"
     fit-margin-top="0"
     showgrid="true"
     inkscape:cy="44.125604"
     inkscape:cx="52.80492"
     inkscape:zoom="10.932089"
     borderopacity="1.0"
     bordercolor="#666666"
     pagecolor="#ffffff"
     id="base"
     inkscape:showpageshadow="false"
     inkscape:guide-bbox="true"
     inkscape:window-maximized="1"
     inkscape:window-y="-8"
     inkscape:window-x="-8"
     inkscape:window-height="705"
     inkscape:window-width="1364"
     fit-margin-bottom="0"
     fit-margin-right="0"
     inkscape:current-layer="layer1"
     inkscape:document-units="px"
     inkscape:pageshadow="2"
     inkscape:pageopacity="0.0"><inkscape:grid
       type="xygrid"
       id="grid821" /><sodipodi:guide
       position="16,48"
       orientation="1,0"
       id="guide823" /><sodipodi:guide
       position="64,80"
       orientation="0,1"
       id="guide825" /><sodipodi:guide
       position="80,40"
       orientation="1,0"
       id="guide827" /><sodipodi:guide
       position="64,16"
       orientation="0,1"
       id="guide829" /></sodipodi:namedview><g
     id="layer1"
     transform="translate(268,-635.29076)"
     inkscape:label="BACKGROUND"
     inkscape:groupmode="layer"><g
       id="path6455"
       sodipodi:nodetypes="sssssssss"
       inkscape:connector-curvature="0"
       filter="url(#filter1121)"><path
         d="M-268,700.156v-33.73c0-27.243,3.888-31.135,31.103-31.135h33.793c27.216,0,31.104,3.892,31.104,31.135    v33.73c0,27.242-3.888,31.135-31.104,31.135h-33.793C-264.112,731.291-268,727.398-268,700.156z"
         id="path3478"
         style="fill:#286ba8;fill-opacity:1"
         fill="#003366" /><path
         style="fill:#0c4da2;fill-opacity:1"
         id="path3442"
         d="M-268,700.156v-33.73c0-27.243,3.888-31.135,31.103-31.135h33.793c27.216,0,31.104,3.892,31.104,31.135    v33.73c0,27.242-3.888,31.135-31.104,31.135h-33.793C-264.112,731.291-268,727.398-268,700.156z"
         fill="#003366" /></g><ellipse
       id="path3363"
       cx="-220.63721"
       cy="687.79077"
       rx="22.5"
       ry="12.5" /><ellipse
       id="path3363-2"
       cx="-220.63721"
       cy="697.33649"
       rx="22.5"
       ry="12.5" /><ellipse
       style="fill:#ff0000"
       id="path3383"
       cx="-220.63721"
       cy="660.29077"
       rx="15"
       ry="5" /><rect
       style="opacity:1;fill:#000000;fill-opacity:1;stroke:#000000;stroke-width:1.43746793;stroke-linecap:round;stroke-opacity:1"
       id="rect4223"
       width="43.370575"
       height="9.90979"
       x="-242.3239"
       y="687.60101" /><ellipse
       style="fill:#ff0000"
       id="path3385"
       cx="-220.63721"
       cy="687.79077"
       rx="17.5"
       ry="7.5" /><path
       style="fill:none;fill-rule:evenodd;stroke:#ff0000;stroke-width:1px;stroke-linecap:round;stroke-linejoin:miter;stroke-opacity:1"
       d="m -206,660.29076 2.38643,27.75458"
       id="path3389"
       inkscape:connector-curvature="0"
       sodipodi:nodetypes="cc" /><path
       style="fill:none;fill-opacity:1;fill-rule:evenodd;stroke:#ff0000;stroke-width:1px;stroke-linecap:round;stroke-linejoin:miter;stroke-opacity:1"
       d="m -235.12272,659.92262 -2.61356,27.73628"
       id="path3393"
       inkscape:connector-curvature="0"
       sodipodi:nodetypes="cc" /><path
       style="fill:#aa0000;fill-opacity:1;stroke:#ff0000;stroke-width:0.12271335;stroke-linecap:round;stroke-opacity:1"
       d="m -236.90217,684.59827 c 0.0311,-0.2307 0.14021,-1.35822 0.24235,-2.50559 0.10215,-1.14737 0.21707,-2.34212 0.25538,-2.65501 l 0.0697,-0.56889 1.18687,-0.55812 c 3.02547,-1.42273 6.77523,-2.40541 10.63579,-2.78727 1.76333,-0.17442 6.00471,-0.17111 7.7923,0.006 2.72921,0.27052 5.73901,0.91611 8.07327,1.7317 1.39017,0.48571 3.70681,1.58024 3.70866,1.7522 8e-4,0.0738 0.11059,1.34906 0.24398,2.83389 0.13339,1.48483 0.24318,2.77514 0.24398,2.86736 8.6e-4,0.0946 -0.21543,-0.0283 -0.4964,-0.2821 -4.08229,-3.6881 -15.01205,-5.24837 -23.61533,-3.37117 -3.37405,0.7362 -6.47602,2.11054 -7.94132,3.51843 l -0.45581,0.43795 0.0566,-0.41946 z"
       id="path4197"
       inkscape:connector-curvature="0" /><path
       style="fill:#aa0000;fill-opacity:1;stroke:#ff0000;stroke-width:0.12271335;stroke-linecap:round;stroke-opacity:1"
       d="m -236.29113,678.13517 c 0.0392,-0.32058 0.39434,-4.0239 0.7892,-8.22959 0.39486,-4.20568 0.74761,-7.67638 0.78389,-7.71265 0.0363,-0.0363 0.25274,0.0765 0.48105,0.25066 1.45063,1.10645 4.6305,2.07749 8.55909,2.6137 1.95435,0.26674 7.63047,0.3014 9.633,0.0588 4.01377,-0.48624 7.16256,-1.40622 8.9274,-2.60833 0.38808,-0.26434 0.70791,-0.43877 0.71073,-0.38763 0.003,0.0511 0.32706,3.79279 0.72054,8.31477 0.39348,4.52199 0.70375,8.23594 0.68949,8.25323 -0.0143,0.0173 -0.6008,-0.23855 -1.30343,-0.56854 -1.66366,-0.78132 -2.75986,-1.17 -4.72601,-1.67569 -1.97319,-0.50751 -4.03783,-0.86546 -6.06178,-1.05097 -2.04169,-0.18713 -7.2407,-0.074 -8.95808,0.19495 -3.4136,0.53456 -6.63366,1.45036 -9.00668,2.56154 -0.66791,0.31275 -1.23582,0.56864 -1.26203,0.56864 -0.0262,0 -0.0156,-0.2623 0.0236,-0.58289 z"
       id="path4199"
       inkscape:connector-curvature="0" /></g><g
     id="layer3"
     inkscape:label="PLACE YOUR PICTOGRAM HERE"
     inkscape:groupmode="layer" /><g
     id="layer2"
     inkscape:label="BADGE"
     sodipodi:insensitive="true"
     inkscape:groupmode="layer"
     display="none"><g
       id="g4394"
       transform="translate(-340.00001,-581)"
       display="inline"><g
         id="g855"><g
           id="g870"
           inkscape:groupmode="maskhelper"
           opacity="0.6"
           filter="url(#filter891)"><path
             id="path844_1_"
             sodipodi:type="arc"
             sodipodi:cx="252"
             sodipodi:cy="552.36218"
             sodipodi:rx="12"
             sodipodi:ry="12"
             d="m 264,552.36218 a 12,12 0 0 1 -12,12 12,12 0 0 1 -12,-12 12,12 0 0 1 12,-12 12,12 0 0 1 12,12 z" /></g><g
           id="g862"><path
             id="path4398"
             sodipodi:type="arc"
             sodipodi:cx="252"
             sodipodi:cy="552.36218"
             sodipodi:rx="12"
             sodipodi:ry="12"
             fill="#F5F5F5"
             d="m 264,552.36218 a 12,12 0 0 1 -12,12 12,12 0 0 1 -12,-12 12,12 0 0 1 12,-12 12,12 0 0 1 12,12 z" /><path
             id="path4400"
             sodipodi:type="arc"
             sodipodi:cx="252"
             sodipodi:cy="552.36218"
             sodipodi:rx="12"
             sodipodi:ry="12"
             fill="#DD4814"
             d="m 264,552.36218 a 12,12 0 0 1 -12,12 12,12 0 0 1 -12,-12 12,12 0 0 1 12,-12 12,12 0 0 1 12,12 z" /><path
             id="path4459"
             sodipodi:arg2="1.6755161"
             sodipodi:arg1="1.0471976"
             sodipodi:r2="4.3458705"
             sodipodi:r1="7.2431178"
             sodipodi:sides="5"
             sodipodi:type="star"
             sodipodi:cx="666.19574"
             sodipodi:cy="589.50385"
             inkscape:randomized="0"
             inkscape:rounded="0.1"
             inkscape:flatsided="false"
             fill="#F5F5F5"
             d="m 669.8173,595.77657 c -0.39132,0.22593 -3.62645,-1.90343 -4.07583,-1.95066 -0.44938,-0.0472 -4.05653,1.36297 -4.39232,1.06062 -0.3358,-0.30235 0.68963,-4.03715 0.59569,-4.47913 -0.0939,-0.44198 -2.5498,-3.43681 -2.36602,-3.8496 0.18379,-0.41279 4.05267,-0.59166 4.44398,-0.81759 0.39132,-0.22593 2.48067,-3.48704 2.93005,-3.4398 0.44938,0.0472 1.81505,3.67147 2.15084,3.97382 0.3358,0.30236 4.08294,1.2817 4.17689,1.72369 0.0939,0.44198 -2.9309,2.86076 -3.11469,3.27355 -0.18379,0.41279 0.0427,4.27917 -0.34859,4.5051 z" /></g></g></g></g></svg>